{
  "accessors": [
    {
      "bufferView": 0,
      "componentType": 5125,
      "count": 186789,
      "type": "SCALAR"
    },
    {
      "bufferView": 1,
      "componentType": 5126,
      "count": 55669,
      "max": [
        0.76517528295517,
        0.999999940395355,
        0.386222839355469
      ],
      "min": [
        -0.76517528295517,
        -0.999999940395355,
        -0.386222839355469
      ],
      "type": "VEC3"
    },
    {
      "bufferView": 2,
      "componentType": 5126,
      "count": 55669,
      "type": "VEC3"
    },
    {
      "bufferView": 3,
      "componentType": 5126,
      "count": 55669,
      "type": "VEC2"
    }
  ],
  "asset": {
    "generator": "Substance Painter 2018.2.3",
    "version": "2.0"
  },
  "bufferViews": [
    {
      "buffer": 0,
      "byteLength": 747156,
      "target": 34963
    },
    {
      "buffer": 0,
      "byteLength": 668028,
      "byteOffset": 747156,
      "target": 34962
    },
    {
      "buffer": 0,
      "byteLength": 668028,
      "byteOffset": 1415184,
      "target": 34962
    },
    {
      "buffer": 0,
      "byteLength": 445352,
      "byteOffset": 2083212,
      "target": 34962
    }
  ],
  "buffers": [
    {
      "byteLength": 2528564,
      "uri": "slotmachine.bin"
    }
  ],
  "images": [
    {
      "uri": "lambert6_baseColor.png"
    },
    {
      "uri": "lambert6_occlusionRoughnessMetallic.png"
    },
    {
      "uri": "lambert6_normal.png"
    }
  ],
  "materials": [
    {
      "alphaMode": "OPAQUE",
      "name": "lambert6",
      "normalTexture": {
        "index": 2
      },
      "occlusionTexture": {
        "index": 1
      },
      "pbrMetallicRoughness": {
        "baseColorTexture": {
          "index": 0
        },
        "metallicRoughnessTexture": {
          "index": 1
        }
      }
    }
  ],
  "meshes": [
    {
      "name": "Slot_Machine",
      "primitives": [
        {
          "attributes": {
            "NORMAL": 2,
            "POSITION": 1,
            "TEXCOORD_0": 3
          },
          "indices": 0,
          "material": 0,
          "mode": 4
        }
      ]
    }
  ],
  "nodes": [
    {
      "children": [
        1
      ],
      "name": "root",
      "scale": [
        44.385929107666,
        44.385929107666,
        44.385929107666
      ],
      "translation": [
        -5.82160568237305,
        2.67307281494141,
        7.78256797790527
      ]
    },
    {
      "children": [
        2
      ],
      "name": "Slot_Machine"
    },
    {
      "mesh": 0,
      "name": "Slot_Machine"
    }
  ],
  "samplers": [
    {
      "magFilter": 9729,
      "minFilter": 9985,
      "wrapS": 10497,
      "wrapT": 10497
    }
  ],
  "scene": 0,
  "scenes": [
    {
      "name": "Scene",
      "nodes": [
        0
      ]
    }
  ],
  "textures": [
    {
      "sampler": 0,
      "source": 0
    },
    {
      "sampler": 0,
      "source": 1
    },
    {
      "sampler": 0,
      "source": 2
    }
  ]
}